# xmcd
#
# Track frame offsets: 
#        150
#        13687
#        31462
#        59287
#        77099
#        94836
#        111861
#        130648
#        144223
#        161248
#        180073
#        203548
#
# Disc length: 2884 seconds
#
# Revision: 1
# Processed by: cddbd v1.5.2PL0 Copyright (c) Steve Scherf et al.
# Submitted via: ExactAudioCopy v1.3
#
DISCID=8f0b420c
DTITLE=Własny Port - Dzięki Wam
DYEAR=0
DGENRE=Szanty
TTITLE0=Monic de Red
TTITLE1=Chłód oceanu
TTITLE2=Piracka zaduma
TTITLE3=Hey my dark lady
TTITLE4=Irlandzki
TTITLE5=Piosenka z papieru
TTITLE6=Własny port
TTITLE7=Kulawy Joe
TTITLE8=Szanta rockowa
TTITLE9=Galery
TTITLE10=Dzięki Wam
TTITLE11=Jak ryby, to...
EXTD=
EXTT0=
EXTT1=
EXTT2=
EXTT3=
EXTT4=
EXTT5=
EXTT6=
EXTT7=
EXTT8=
EXTT9=
EXTT10=
EXTT11=
PLAYORDER=
